<?xml version="1.0" encoding="UTF-8"?>
<svg width="123px" height="38px" viewBox="0 0 123 38" version="1.1" xmlns="http://www.w3.org/2000/svg" xmlns:xlink="http://www.w3.org/1999/xlink">
    <!-- Generator: Sketch 63.1 (92452) - https://sketch.com -->
    <title>Shape</title>
    <desc>Created with Sketch.</desc>
    <g id="About" stroke="none" stroke-width="1" fill="none" fill-rule="evenodd">
        <g transform="translate(-1066.000000, -3494.000000)" fill="#B0B4B9" id="partners">
            <g transform="translate(242.000000, 3313.000000)">
                <path d="M888.823502,190.547548 C888.823502,191.916917 887.709157,193.02002 886.325832,193.02002 C884.942507,193.02002 883.828162,191.916917 883.828162,190.547548 C883.828162,189.178178 884.904082,188.075075 886.325832,188.075075 C887.747583,188.113113 888.823502,189.216216 888.823502,190.547548 Z M878.525417,195.530531 L878.525417,196.139139 C878.525417,196.139139 877.33422,194.617618 874.798125,194.617618 C870.609724,194.617618 867.34354,197.774775 867.34354,202.149149 C867.34354,206.485485 870.571298,209.680681 874.798125,209.680681 C877.372646,209.680681 878.525417,208.121121 878.525417,208.121121 L878.525417,208.767768 C878.525417,209.072072 878.755971,209.3003 879.063376,209.3003 L882.175857,209.3003 L882.175857,194.997998 L879.063376,194.997998 C878.755971,194.997998 878.525417,195.264264 878.525417,195.530531 Z M878.525417,204.697698 C877.949031,205.534535 876.796261,206.257257 875.412936,206.257257 C872.953691,206.257257 871.070832,204.735736 871.070832,202.149149 C871.070832,199.562563 872.953691,198.041041 875.412936,198.041041 C876.757835,198.041041 877.987457,198.801802 878.525417,199.600601 L878.525417,204.697698 Z M884.481399,194.997998 L888.170265,194.997998 L888.170265,209.3003 L884.481399,209.3003 L884.481399,194.997998 Z M939.583841,194.617618 C937.047746,194.617618 935.856549,196.139139 935.856549,196.139139 L935.856549,188.113113 L932.167683,188.113113 L932.167683,209.3003 L935.280164,209.3003 C935.587569,209.3003 935.818124,209.034034 935.818124,208.767768 L935.818124,208.121121 C935.818124,208.121121 937.00932,209.680681 939.545416,209.680681 C943.733816,209.680681 947,206.485485 947,202.149149 C947,197.812813 943.733816,194.617618 939.583841,194.617618 L939.583841,194.617618 Z M938.96903,206.219219 C937.54728,206.219219 936.432935,205.496496 935.856549,204.65966 L935.856549,199.562563 C936.432935,198.801802 937.662557,198.003003 938.96903,198.003003 C941.428275,198.003003 943.311134,199.524525 943.311134,202.111111 C943.311134,204.697698 941.428275,206.219219 938.96903,206.219219 L938.96903,206.219219 Z M930.246398,200.817818 L930.246398,209.338338 L926.557532,209.338338 L926.557532,201.236236 C926.557532,198.877878 925.789018,197.926927 923.714031,197.926927 C922.599686,197.926927 921.446915,198.497497 920.716827,199.334334 L920.716827,209.3003 L917.02796,209.3003 L917.02796,194.997998 L919.948313,194.997998 C920.255718,194.997998 920.486272,195.264264 920.486272,195.530531 L920.486272,196.139139 C921.562192,195.036036 922.983942,194.617618 924.405693,194.617618 C926.019572,194.617618 927.364471,195.074074 928.440391,195.986987 C929.746864,197.052052 930.246398,198.421421 930.246398,200.817818 L930.246398,200.817818 Z M908.074774,194.617618 C905.538678,194.617618 904.347482,196.139139 904.347482,196.139139 L904.347482,188.113113 L900.658615,188.113113 L900.658615,209.3003 L903.771096,209.3003 C904.078502,209.3003 904.309056,209.034034 904.309056,208.767768 L904.309056,208.121121 C904.309056,208.121121 905.500253,209.680681 908.036348,209.680681 C912.224749,209.680681 915.490932,206.485485 915.490932,202.149149 C915.529358,197.812813 912.263174,194.617618 908.074774,194.617618 L908.074774,194.617618 Z M907.459963,206.219219 C906.038212,206.219219 904.923867,205.496496 904.347482,204.65966 L904.347482,199.562563 C904.923867,198.801802 906.153489,198.003003 907.459963,198.003003 C909.919207,198.003003 911.802066,199.524525 911.802066,202.111111 C911.802066,204.697698 909.919207,206.219219 907.459963,206.219219 L907.459963,206.219219 Z M897.469283,194.617618 C898.583628,194.617618 899.160013,194.807808 899.160013,194.807808 L899.160013,198.193193 C899.160013,198.193193 896.085958,197.166166 894.164673,199.334334 L894.164673,209.338338 L890.475807,209.338338 L890.475807,194.997998 L893.588288,194.997998 C893.895694,194.997998 894.126248,195.264264 894.126248,195.530531 L894.126248,196.139139 C894.81791,195.34034 896.316512,194.617618 897.469283,194.617618 L897.469283,194.617618 Z M859.158868,208.007007 C858.966739,207.550551 858.774611,207.056056 858.582482,206.637638 C858.275077,205.952953 857.967671,205.306306 857.698692,204.697698 L857.660266,204.65966 C855.008893,198.953954 852.169234,193.172172 849.17203,187.466466 L849.056753,187.238238 C848.749348,186.667668 848.441942,186.059059 848.134537,185.45045 C847.75028,184.765766 847.366023,184.043043 846.751212,183.358358 C845.52159,181.836837 843.754008,181 841.871149,181 C839.949864,181 838.220708,181.836837 836.95266,183.282282 C836.376275,183.966967 835.953592,184.68969 835.569335,185.374374 C835.26193,185.982983 834.954524,186.591592 834.647119,187.162162 L834.531842,187.39039 C831.573063,193.096096 828.691137,198.877878 826.039764,204.583584 L826.001338,204.65966 C825.732358,205.268268 825.424953,205.914915 825.117547,206.5996 C824.925419,207.018018 824.73329,207.474474 824.541162,207.968969 C824.041628,209.376376 823.887925,210.707708 824.080054,212.077077 C824.502736,214.92993 826.424021,217.326326 829.075393,218.391391 C830.074461,218.80981 831.111955,219 832.187875,219 C832.49528,219 832.879537,218.961962 833.186943,218.923924 C834.45499,218.771772 835.761464,218.353353 837.029512,217.630631 C838.604965,216.755756 840.103567,215.500501 841.794298,213.674675 C843.485028,215.500501 845.022056,216.755756 846.559083,217.630631 C847.827131,218.353353 849.133605,218.771772 850.401653,218.923924 C850.709058,218.961962 851.093315,219 851.400721,219 C852.47664,219 853.552559,218.80981 854.509359,218.391391 C857.199158,217.326326 859.082016,214.891892 859.504699,212.077077 C859.812105,210.745746 859.658402,209.414414 859.158868,208.007007 L859.158868,208.007007 Z M841.832723,209.984985 C839.757736,207.398398 838.412837,204.963964 837.951728,202.90991 C837.7596,202.035035 837.721174,201.274274 837.836451,200.58959 C837.913303,199.980981 838.143857,199.448448 838.451262,198.991992 C839.181351,197.964965 840.410973,197.318318 841.832723,197.318318 C843.254474,197.318318 844.522522,197.926927 845.214184,198.991992 C845.52159,199.448448 845.752144,199.980981 845.828995,200.58959 C845.944272,201.274274 845.905847,202.073073 845.713718,202.90991 C845.25261,204.925926 843.907711,207.36036 841.832723,209.984985 L841.832723,209.984985 Z M857.160732,211.772773 C856.891752,213.750751 855.546853,215.462462 853.667836,216.223223 C852.74562,216.603604 851.746552,216.717718 850.747484,216.603604 C849.786842,216.489489 848.826199,216.185185 847.827131,215.614615 C846.443806,214.853854 845.060481,213.674675 843.446602,211.924925 C845.982698,208.843844 847.519726,206.029029 848.096111,203.518519 C848.365091,202.339339 848.403517,201.274274 848.28824,200.285285 C848.134537,199.334334 847.788706,198.459459 847.250746,197.698699 C846.059549,195.986987 844.061413,194.997998 841.832723,194.997998 C839.604033,194.997998 837.605897,196.025025 836.414701,197.698699 C835.876741,198.459459 835.53091,199.334334 835.377207,200.285285 C835.223504,201.274274 835.26193,202.377377 835.569335,203.518519 C836.145721,206.029029 837.721174,208.881882 840.218844,211.962963 C838.643391,213.712713 837.22164,214.891892 835.838315,215.652653 C834.839247,216.223223 833.878605,216.527528 832.917963,216.641642 C831.880469,216.755756 830.881401,216.603604 829.99761,216.261261 C828.114751,215.500501 826.769852,213.788789 826.500872,211.810811 C826.385595,210.85986 826.462446,209.908909 826.846703,208.843844 C826.96198,208.463463 827.154109,208.083083 827.346237,207.626627 C827.615217,207.018018 827.922623,206.371371 828.230028,205.724725 L828.268454,205.648649 C830.919827,199.980981 833.763328,194.199199 836.722106,188.56957 L836.837383,188.341341 C837.144789,187.770771 837.452194,187.162162 837.7596,186.591592 C838.067005,185.982983 838.412837,185.412412 838.835519,184.917918 C839.642459,184.005005 840.718378,183.510511 841.909575,183.510511 C843.100771,183.510511 844.17669,184.005005 844.98363,184.917918 C845.406313,185.412412 845.752144,185.982983 846.059549,186.591592 C846.366955,187.162162 846.67436,187.770771 846.981766,188.341341 L847.097043,188.56957 C850.017396,194.237237 852.860897,200.019019 855.508427,205.686687 L855.508427,205.724725 C855.815833,206.333333 856.084812,207.018018 856.392218,207.626627 C856.584346,208.083083 856.776475,208.463463 856.891752,208.843844 C857.199158,209.832833 857.314435,210.783784 857.160732,211.772773 Z" id="Shape"></path>
            </g>
        </g>
    </g>
</svg>