<svg xmlns="http://www.w3.org/2000/svg" width="55" height="58" viewBox="0 0 55 58"><path d="M27.625 0c-1.758 0-3.552.677-5.005 1.785C21.166 2.892 20 4.519 20 6.475v.962C11.612 10.099 5 17.089 5 26.25v6.313H3.762c-1.02 0-1.967.413-2.646 1.092l-.005.005-.007.007a3.805 3.805 0 00-1.092 2.646c0 .15.027.292.044.437H0V47.5c0 2.744 2.256 5 5 5h.857c1.41 2.95 4.417 5 7.893 5h27.5c3.466 0 6.475-2.054 7.888-5H50c2.744 0 5-2.256 5-5V36.75h-.044c.017-.145.044-.287.044-.437a3.805 3.805 0 00-1.091-2.646l-.008-.007-.005-.005a3.745 3.745 0 00-2.646-1.092H50V26.25c0-9.161-6.612-16.151-15-18.813v-.962c0-1.92-1.076-3.552-2.47-4.67C31.134.684 29.381 0 27.624 0zm0 2.5c1.067 0 2.377.483 3.34 1.255.961.772 1.535 1.752 1.535 2.72v.307a24.759 24.759 0 00-5-.532c-1.693 0-3.367.195-5 .532v-.307c0-.932.608-1.918 1.636-2.7 1.027-.784 2.42-1.275 3.489-1.275zM27.5 8.75c10.413 0 20 7.277 20 17.5v22.5c0 3.443-2.807 6.25-6.25 6.25h-27.5a6.23 6.23 0 01-6.25-6.25v-22.5c0-10.223 9.587-17.5 20-17.5zm-.03 3.75c-6.861.16-11.94 2.936-14.73 6.763a1.251 1.251 0 002.02 1.474c2.279-3.123 6.534-5.582 12.74-5.735 6.204.153 10.461 2.613 12.74 5.735a1.251 1.251 0 102.02-1.474c-2.79-3.825-7.87-6.603-14.73-6.763h-.06zm13.76 10.054A1.25 1.25 0 0040 23.82v2.563a1.25 1.25 0 102.5 0v-2.563a1.25 1.25 0 00-1.27-1.267zM16.25 31.25A3.768 3.768 0 0012.5 35v12.5a3.768 3.768 0 003.75 3.75h22.5a3.768 3.768 0 003.75-3.75V35a3.768 3.768 0 00-3.75-3.75h-22.5zm0 2.5h22.5c.693 0 1.25.557 1.25 1.25a1.23 1.23 0 01-1.25 1.25h-22.5A1.23 1.23 0 0115 35c0-.693.557-1.25 1.25-1.25zM3.762 35.063H5v2.5H3.762c-.693 0-1.25-.556-1.25-1.25 0-.335.14-.645.379-.893.22-.218.52-.357.871-.357zm46.238 0h1.25c.351 0 .651.14.872.357.238.248.378.558.378.893 0 .694-.557 1.25-1.25 1.25H50v-2.5zm-35 3.414c.377.17.79.273 1.25.273h22.5c.46 0 .873-.104 1.25-.273V47.5c0 .693-.557 1.25-1.25 1.25h-22.5c-.693 0-1.25-.557-1.25-1.25v-9.023zm-12.5 1.35c.397.144.818.236 1.262.236H5v8.687c0 .425.04.84.1 1.25H5a2.5 2.5 0 01-2.5-2.5v-7.673zm50 .002V47.5A2.5 2.5 0 0150 50h-.1c.06-.41.1-.825.1-1.25v-8.687h1.25c.44 0 .856-.092 1.25-.234zM18.75 43.75a1.25 1.25 0 100 2.5h2.5a1.25 1.25 0 100-2.5h-2.5zm7.5 0a1.25 1.25 0 100 2.5h2.5a1.25 1.25 0 100-2.5h-2.5zm7.5 0a1.25 1.25 0 100 2.5h2.5a1.25 1.25 0 100-2.5h-2.5z" fill="#000" fill-rule="nonzero"></path></svg>