<?xml version="1.0" encoding="UTF-8"?>
<svg width="95px" height="49px" viewBox="0 0 95 49" version="1.1" xmlns="http://www.w3.org/2000/svg" xmlns:xlink="http://www.w3.org/1999/xlink">
    <!-- Generator: Sketch 63.1 (92452) - https://sketch.com -->
    <title>Shape</title>
    <desc>Created with Sketch.</desc>
    <g id="About" stroke="none" stroke-width="1" fill="none" fill-rule="evenodd">
        <g transform="translate(-861.000000, -3489.000000)" fill="#B0B4B9" id="partners">
            <g transform="translate(242.000000, 3313.000000)">
                <path d="M711.778942,222.589038 L712.251236,222.589038 L712.902236,224.337922 L712.915001,224.337922 L713.540471,222.589038 L714,222.589038 L714,224.712683 L713.693647,224.712683 L713.693647,222.976291 L713.680883,222.976291 L713.029883,224.712683 L712.736295,224.712683 L712.09806,222.976291 L712.085295,222.976291 L712.085295,224.712683 L711.778942,224.712683 L711.778942,222.589038 L711.778942,222.589038 Z M711.625766,222.589038 L711.625766,222.838878 L710.885413,222.838878 L710.885413,224.712683 L710.579061,224.712683 L710.579061,222.838878 L709.838708,222.838878 L709.838708,222.589038 L711.625766,222.589038 L711.625766,222.589038 Z M714,191.196558 C714,190.084767 713.080942,189.185341 711.944883,189.185341 C710.808825,189.185341 709.877002,190.084767 709.877002,191.196558 L709.877002,195.44385 C709.877002,196.555641 710.808825,197.467559 711.944883,197.467559 C713.080942,197.467559 714,196.555641 714,195.44385 L714,191.196558 Z M702.664947,185.637604 C702.664947,184.519567 701.745888,183.615143 700.571536,183.615143 C699.435478,183.615143 698.516419,184.519567 698.516419,185.637604 L698.516419,195.44385 C698.516419,196.555641 699.435478,197.467559 700.571536,197.467559 C701.745888,197.467559 702.664947,196.555641 702.664947,195.44385 L702.664947,185.637604 Z M691.291599,178.017463 C691.291599,176.904423 690.372541,176 689.236483,176 C688.100425,176 687.168602,176.904423 687.168602,178.017463 L687.168602,199.466284 C687.168602,200.590567 688.100425,201.489994 689.236483,201.489994 C690.372541,201.489994 691.291599,200.590567 691.291599,199.466284 L691.291599,178.017463 Z M679.931017,185.637604 C679.931017,184.519567 679.011959,183.615143 677.863136,183.615143 C676.727077,183.615143 675.808019,184.519567 675.808019,185.637604 L675.808019,195.44385 C675.808019,196.555641 676.727077,197.467559 677.863136,197.467559 C679.011959,197.467559 679.931017,196.555641 679.931017,195.44385 L679.931017,185.637604 Z M668.570434,191.196558 C668.570434,190.084767 667.638611,189.185341 666.502553,189.185341 C665.366495,189.185341 664.434672,190.084767 664.434672,191.196558 L664.434672,195.44385 C664.434672,196.555641 665.366495,197.467559 666.502553,197.467559 C667.638611,197.467559 668.570434,196.555641 668.570434,195.44385 L668.570434,191.196558 Z M657.222616,185.637604 C657.222616,184.519567 656.290793,183.615143 655.154735,183.615143 C654.005912,183.615143 653.074089,184.519567 653.074089,185.637604 L653.074089,195.44385 C653.074089,196.555641 654.005912,197.467559 655.154735,197.467559 C656.290793,197.467559 657.222616,196.555641 657.222616,195.44385 L657.222616,185.637604 Z M645.862034,178.017463 C645.862034,176.904423 644.930211,176 643.794152,176 C642.645329,176 641.726271,176.904423 641.726271,178.017463 L641.726271,199.466284 C641.726271,200.590567 642.645329,201.489994 643.794152,201.489994 C644.930211,201.489994 645.862034,200.590567 645.862034,199.466284 L645.862034,178.017463 Z M634.501451,185.637604 C634.501451,184.519567 633.569628,183.615143 632.43357,183.615143 C631.284747,183.615143 630.365688,184.519567 630.365688,185.637604 L630.365688,195.44385 C630.365688,196.555641 631.284747,197.467559 632.43357,197.467559 C633.569628,197.467559 634.501451,196.555641 634.501451,195.44385 L634.501451,185.637604 Z M623.135763,191.196558 C623.135763,190.084767 622.207769,189.185341 621.069158,189.185341 C619.92927,189.185341 619,190.084767 619,191.196558 L619,195.44385 C619,196.555641 619.92927,197.467559 621.069158,197.467559 C622.207769,197.467559 623.135763,196.555641 623.135763,195.44385 L623.135763,191.196558 Z M665.838789,212.233142 C665.774965,212.22065 664.013437,211.745953 662.571025,211.745953 C660.911615,211.745953 660.005321,212.28311 660.005321,213.070108 C660.005321,214.044487 661.230732,214.394264 661.907261,214.606628 L663.056084,214.956405 C665.7622,215.805864 667.000376,217.617208 667.000376,219.578458 C667.000376,223.638368 663.349672,225 660.158497,225 C657.950204,225 655.869558,224.612747 655.665323,224.562779 L655.665323,220.840153 C656.035499,220.940089 657.784263,221.452263 659.59685,221.452263 C661.664732,221.452263 662.622084,220.852645 662.622084,219.940727 C662.622084,219.116252 661.805144,218.641555 660.771203,218.329254 C660.515909,218.24181 660.132968,218.129382 659.877674,218.041938 C657.554499,217.329892 655.627029,215.993244 655.627029,213.319949 C655.627029,210.296877 657.93744,208.273168 661.779614,208.273168 C663.796437,208.273168 665.711142,208.747865 665.838789,208.785341 L665.838789,212.233142 L665.838789,212.233142 Z M696.729361,212.395539 C694.25301,212.395539 692.427658,214.294328 692.427658,216.64283 C692.427658,218.991332 694.25301,220.890121 696.729361,220.890121 C699.205713,220.890121 701.04383,218.991332 701.04383,216.64283 C701.04383,214.294328 699.205713,212.395539 696.729361,212.395539 L696.729361,212.395539 Z M705.447651,216.64283 C705.447651,221.264882 701.809712,225 696.729361,225 C691.649011,225 688.011072,221.264882 688.011072,216.64283 C688.011072,212.020778 691.649011,208.273168 696.729361,208.273168 C701.809712,208.273168 705.447651,212.020778 705.447651,216.64283 L705.447651,216.64283 Z M640.143448,213.195029 C639.977507,213.107584 638.637214,212.333078 636.645921,212.333078 C633.939804,212.333078 632.076158,214.169407 632.076158,216.64283 C632.076158,219.0413 633.863216,220.952581 636.645921,220.952581 C638.59892,220.952581 639.964743,220.190567 640.143448,220.090631 L640.143448,224.425366 C639.620096,224.575271 638.203214,225 636.339568,225 C631.654923,225 627.553625,221.839516 627.553625,216.64283 C627.553625,211.808413 631.271982,208.273168 636.339568,208.273168 C638.305332,208.273168 639.747743,208.735373 640.143448,208.860293 L640.143448,213.195029 L640.143448,213.195029 Z M683.620015,213.195029 C683.454074,213.107584 682.113781,212.333078 680.122487,212.333078 C677.429136,212.333078 675.56549,214.169407 675.56549,216.64283 C675.56549,219.0413 677.352548,220.952581 680.122487,220.952581 C682.075486,220.952581 683.441309,220.190567 683.620015,220.090631 L683.620015,224.425366 C683.109427,224.575271 681.679781,225 679.828899,225 C675.144255,225 671.034021,221.839516 671.034021,216.64283 C671.034021,211.808413 674.748549,208.273168 679.828899,208.273168 C681.781898,208.273168 683.237074,208.735373 683.620015,208.860293 L683.620015,213.195029 Z M650.036091,224.712683 L645.874798,224.712683 L645.874798,208.560484 L650.036091,208.560484 L650.036091,224.712683 Z" id="Shape"></path>
            </g>
        </g>
    </g>
</svg>