<?xml version="1.0" encoding="UTF-8"?>
<svg width="80px" height="38px" viewBox="0 0 80 38" version="1.1" xmlns="http://www.w3.org/2000/svg" xmlns:xlink="http://www.w3.org/1999/xlink">
    <!-- Generator: Sketch 63.1 (92452) - https://sketch.com -->
    <title>Shape</title>
    <desc>Created with Sketch.</desc>
    <g id="About" stroke="none" stroke-width="1" fill="none" fill-rule="evenodd">
        <g transform="translate(-451.000000, -3495.000000)" fill="#B0B4B9" id="partners">
            <g transform="translate(242.000000, 3313.000000)">
                <path d="M241.929674,219.980535 C238.611864,219.749128 235.803774,216.962986 235.803774,213.038322 L235.803774,194.359139 C235.803774,193.68343 235.303322,193.100284 234.57118,193.100284 L228.732577,193.100284 C216.091537,193.081771 217.21292,209.224732 227.972632,209.243245 L234.441433,209.243245 L234.441433,213.936181 L227.750209,213.936181 C223.459298,213.936181 220.280503,212.334844 218.139682,209.955979 C215.989593,207.567857 214.914489,204.365183 214.914489,201.162508 C214.905281,197.959834 215.971058,194.775672 218.167485,192.38755 C220.363912,190.008685 223.681721,188.407348 228.232125,188.407348 L239.25133,188.407348 C239.974205,188.407348 240.576601,189.036775 240.576601,189.758765 L240.576601,212.538482 C240.567333,213.71403 241.234602,214.621146 242.096491,214.889579 C242.95838,215.158011 243.968551,214.815528 244.561679,213.96395 L244.589482,213.936181 C247.721939,208.817456 260.159091,188.888674 260.177626,188.851649 C260.520528,188.370322 260.928304,188.27776 261.224868,188.379579 C261.521432,188.481398 261.817996,188.796112 261.817996,189.592152 L261.817996,212.538482 C261.808728,213.71403 262.475997,214.621146 263.337886,214.889579 C264.199775,215.158011 265.191411,214.815528 265.784539,213.96395 L265.784539,213.936181 L265.830877,213.936181 C268.963334,208.817456 281.400486,188.888674 281.419021,188.851649 C281.752656,188.370322 282.151164,188.27776 282.466263,188.379579 C282.781362,188.481398 283.087194,188.777599 283.087194,189.564383 L283.087194,219.860204 L278.360705,219.860204 L278.360705,202.180699 C278.360705,202.180699 275.543348,206.984711 270.724183,215.269086 C265.997694,223.377592 257.072972,220.01756 257.072972,213.038322 L257.072972,202.180699 C257.072972,202.180699 254.301952,206.984711 249.47352,215.269086 C247.397572,218.814243 244.515341,220.174917 241.929674,219.980535 L241.929674,219.980535 Z M228.575027,219.860204 C202.292044,219.860204 202.54227,182.4463 228.927197,182.427788 L239.25133,182.427788 C243.690523,182.427788 246.517148,185.047316 246.517148,189.897609 L246.517148,199.385301 C246.517148,199.385301 252.309413,189.814303 254.589249,186.065508 C258.453848,179.687927 267.786346,180.946782 267.758543,188.907187 L267.758543,199.385301 C267.758543,199.385301 273.532273,189.814303 275.802841,186.065508 C279.66744,179.687927 289.027741,180.946782 289,188.907187 L289,219.86946 L284.27345,219.86946 L284.27345,189.573639 C284.282717,188.407348 283.671054,187.546513 282.8277,187.278081 C281.984347,187.000392 281.020514,187.352131 280.427386,188.17594 L280.40885,188.17594 L280.40885,188.222222 C280.40885,188.222222 267.962431,208.095466 264.792903,213.278985 C264.783636,213.288241 264.774368,213.269729 264.7651,213.278985 C264.755833,213.278985 264.774368,213.306754 264.7651,213.306754 C264.440734,213.741799 264.014423,213.834362 263.671521,213.732543 C263.319351,213.621468 262.976449,213.31601 262.985717,212.547739 L262.985717,189.601408 C262.994984,188.444373 262.392589,187.537257 261.558502,187.250312 C260.724416,186.972623 259.769851,187.342875 259.185991,188.17594 L259.185991,188.203709 L259.158188,188.203709 C259.158188,188.203709 246.7025,208.113978 243.542241,213.288241 C243.208606,213.760312 242.782295,213.871387 242.430126,213.760312 C242.077956,213.649236 241.735054,213.343779 241.744321,212.575507 L241.744321,212.547739 L241.744321,189.768021 C241.744321,188.388835 240.604404,187.231799 239.223528,187.231799 L228.21359,187.231799 C223.37589,187.231799 219.715178,188.971981 217.296328,191.59151 C214.877478,194.211038 213.681955,197.691401 213.681955,201.171764 C213.691222,204.642871 214.877478,208.151003 217.240722,210.770532 C219.603967,213.39006 223.144199,215.130242 227.731673,215.130242 L234.422898,215.130242 L234.422898,219.86946 L228.575027,219.860204 L228.575027,219.860204 Z" id="Shape" transform="translate(249.000000, 201.000000) scale(-1, 1) rotate(-180.000000) translate(-249.000000, -201.000000) "></path>
            </g>
        </g>
    </g>
</svg>