<?xml version="1.0" encoding="UTF-8"?>
<svg width="99px" height="40px" viewBox="0 0 99 40" version="1.1" xmlns="http://www.w3.org/2000/svg" xmlns:xlink="http://www.w3.org/1999/xlink">
    <!-- Generator: Sketch 63.1 (92452) - https://sketch.com -->
    <title>Combined Shape</title>
    <desc>Created with Sketch.</desc>
    <g id="About" stroke="none" stroke-width="1" fill="none" fill-rule="evenodd">
        <g transform="translate(-242.000000, -3493.000000)" fill="#B0B4B9" id="partners">
            <g transform="translate(242.000000, 3313.000000)">
                <path d="M12.797891,188.717699 C5.81898067,188.717699 0,191.701609 0,200.711848 C0,207.849829 3.90509666,212.354949 12.9718805,212.354949 C23.6432337,212.354949 24.3198594,205.255973 24.3198594,205.255973 L19.1581722,205.255973 C19.1581722,205.255973 18.056239,209.078498 12.6625659,209.078498 C8.2741652,209.078498 5.10369069,206.094588 5.10369069,201.882009 L24.8804921,201.882009 L24.8804921,199.249147 C24.8804921,195.114578 22.2706503,188.717699 12.797891,188.717699 L12.797891,188.717699 Z M29.9068541,180 L29.9068541,192.540224 C29.9068541,192.540224 32.0527241,188.795709 38.9349736,188.795709 C46.3005272,188.795709 50.6502636,194.041931 50.6502636,200.555826 C50.6502636,201.337209 50.5912712,202.092358 50.4767528,202.817395 C51.6719194,199.46149 55.7782017,197.805948 62.5395431,197.805948 L62.5395431,197.805948 L68.6678383,197.805948 L68.6678383,196.713798 C68.6678383,193.651877 66,192.052657 62.5395431,192.052657 C57.2231986,192.052657 56.9525483,195.446124 56.9525483,195.446124 L56.9525483,195.446124 L51.7328647,195.446124 C51.7328647,194.509995 52.4094903,188.717699 62.9068541,188.717699 C66.4944827,188.717699 70.4312794,189.480902 72.4157888,192.4766 L70.9103691,189.634325 L76.7873462,189.634325 L85.2355009,206.699171 L93.6643234,189.634325 L99,189.634325 L83.6695958,220 L78.0826011,220 L82.5096661,211.535836 L73.0475018,193.6675 C73.4766858,194.701459 73.717511,195.938912 73.7135325,197.415895 L73.7135325,197.415895 L73.7135325,208.376402 C73.7135325,209.644076 73.887522,211.63335 73.887522,211.63335 L73.887522,211.63335 L69.2478032,211.63335 C69.2478032,211.63335 69.1318102,210.03413 69.1318102,208.415407 C69.1318102,208.415407 66.7732865,212.491468 59.4463972,212.491468 C54.0913884,212.491468 50.1089631,209.878108 50.1089631,205.080449 C50.1089631,204.821406 50.1210776,204.569356 50.1452399,204.324285 C48.75498,209.251866 44.5780904,212.452462 38.9349736,212.452462 C32.3040422,212.452462 29.8681898,208.610434 29.8681898,208.610434 C29.8681898,210.053632 29.6942004,211.652852 29.6942004,211.652852 L29.6942004,211.652852 L24.7644991,211.652852 C24.7644991,211.652852 24.8804921,209.429547 24.8804921,207.849829 L24.8804921,207.849829 L24.8804921,180 L29.9068541,180 Z M68.6871705,201.082399 C60.741652,201.082399 55.3479789,201.121404 55.3479789,205.080449 C55.3479789,207.264749 56.9525483,209.156509 60.7029877,209.156509 C67.5272408,209.156509 68.6871705,204.43686 68.6871705,202.5451 L68.6871705,202.5451 Z M37.6783831,192.228181 C32.3620387,192.228181 29.9261863,196.479766 29.9261863,200.575329 C29.9261863,205.002438 32.6520211,208.980985 37.7170475,208.980985 C41.9507909,208.980985 45.43058,205.646026 45.43058,200.536324 C45.43058,195.777669 42.4147627,192.228181 37.6783831,192.228181 Z M12.6239016,192.091663 C16.7996485,192.091663 19.6608084,194.666017 19.6608084,198.54705 L5.23894101,198.54705 C5.21968366,194.431984 8.95079086,192.091663 12.6239016,192.091663 Z" id="Combined-Shape"></path>
            </g>
        </g>
    </g>
</svg>