<?xml version="1.0" encoding="UTF-8"?>
<svg width="110px" height="35px" viewBox="0 0 110 35" version="1.1" xmlns="http://www.w3.org/2000/svg" xmlns:xlink="http://www.w3.org/1999/xlink">
    <!-- Generator: Sketch 63.1 (92452) - https://sketch.com -->
    <title>Shape</title>
    <desc>Created with Sketch.</desc>
    <g id="About" stroke="none" stroke-width="1" fill="none" fill-rule="evenodd">
        <g transform="translate(-641.000000, -3498.000000)" fill="#B0B4B9" id="partners">
            <g transform="translate(242.000000, 3313.000000)">
                <path d="M413.124023,212.152318 C417.265998,212.152318 420.387191,210.830574 422.830504,208.34713 C425.345679,205.89128 426.126543,202.453091 426.126543,199.671634 C426.126543,198.807947 426.058642,198.016004 425.92284,197.350993 L413.124023,197.350993 L413.124023,201.059603 L422.222222,201.059603 C421.950617,203.145695 421.234825,204.668874 420.152932,205.728477 C418.826595,207.017108 416.75787,208.443709 413.124023,208.443709 C407.52302,208.443709 403.142541,204.039735 403.142541,198.576159 C403.142541,193.112583 407.52302,188.70585 413.124023,188.70585 C416.143364,188.70585 418.353832,189.86755 419.980633,191.357616 L422.66358,188.741722 C420.387191,186.625276 417.36785,185 413.124023,185 C405.449769,185 399,191.089956 399,198.576159 C399,206.059603 405.449769,212.152318 413.124023,212.152318 Z M436.484311,212.152318 C441.438272,212.152318 445.478395,208.443709 445.478395,203.407837 C445.478395,198.344371 441.438272,194.668874 436.484311,194.668874 C431.521862,194.668874 427.481739,198.344371 427.481739,203.407837 C427.481739,208.443709 431.521862,212.152318 436.484311,212.152318 Z M436.484311,208.708609 C433.765432,208.708609 431.42001,206.523179 431.42001,203.407837 C431.42001,200.264901 433.765432,198.115342 436.484311,198.115342 C439.197531,198.115342 441.540123,200.264901 441.540123,203.407837 C441.540123,206.523179 439.197531,208.708609 436.484311,208.708609 L436.484311,208.708609 Z M456.104938,212.152318 C461.061728,212.152318 465.101852,208.443709 465.101852,203.407837 C465.101852,198.344371 461.061728,194.668874 456.104938,194.668874 C451.145319,194.668874 447.105195,198.344371 447.105195,203.407837 C447.105195,208.443709 451.145319,212.152318 456.104938,212.152318 Z M456.104938,208.708609 C453.388889,208.708609 451.043467,206.523179 451.043467,203.407837 C451.043467,200.264901 453.388889,198.115342 456.104938,198.115342 C458.820988,198.115342 461.16358,200.264901 461.16358,203.407837 C461.16358,206.523179 458.820988,208.708609 456.104938,208.708609 L456.104938,208.708609 Z M475.388889,220 C480.003344,220 483.913323,217.353753 483.913323,210.89404 L483.913323,195.198675 L480.175926,195.198675 L480.175926,196.622517 L480.040123,196.622517 C479.154578,195.596026 477.457047,194.668874 475.323817,194.668874 C470.839506,194.668874 466.734311,198.509934 466.734311,203.443709 C466.734311,208.34713 470.839506,212.152318 475.323817,212.152318 C477.457047,212.152318 479.154578,211.225166 480.040123,210.165563 L480.175926,210.165563 L480.175926,211.423841 C480.175926,214.770971 478.342593,216.556291 475.388889,216.556291 C472.981224,216.556291 471.484568,214.870309 470.870628,213.440949 L467.444444,214.834437 C468.431842,217.155077 471.04321,220 475.388889,220 L475.388889,220 Z M475.657665,208.708609 C472.944444,208.708609 470.666924,206.492826 470.666924,203.443709 C470.666924,200.364238 472.944444,198.115342 475.657665,198.115342 C478.342593,198.115342 480.447531,200.364238 480.447531,203.443709 C480.447531,206.492826 478.342593,208.708609 475.657665,208.708609 Z M490.564815,185.927152 L486.626543,185.927152 L486.626543,211.622517 L490.564815,211.622517 L490.564815,185.927152 Z M501.361111,212.152318 C505.466307,212.152318 507.845679,209.704746 508.830247,208.278146 L505.771862,206.29415 C504.756173,207.745585 503.364198,208.708609 501.361111,208.708609 C499.358025,208.708609 497.92927,207.81457 497.015432,206.059603 L509,201.222406 L508.592593,200.231788 C507.845679,198.278146 505.568158,194.668874 500.919753,194.668874 C496.302469,194.668874 492.466049,198.21468 492.466049,203.407837 C492.466049,208.311258 496.268519,212.152318 501.361111,212.152318 L501.361111,212.152318 Z M496.37037,203.145695 C496.268519,199.770971 499.052469,198.046358 501.055556,198.046358 C502.617284,198.046358 503.941358,198.807947 504.385545,199.900662 L496.37037,203.145695 Z" id="Shape"></path>
            </g>
        </g>
    </g>
</svg>