<svg xmlns="http://www.w3.org/2000/svg" width="55" height="51" viewBox="0 0 55 51"><g fill="#000" fill-rule="nonzero"><path d="M20.755 6.226h2.075v9.34h-2.075zM42.547 8.302a4.15 4.15 0 100 8.302 4.15 4.15 0 000-8.302z"></path><path d="M43.585 31.132h-2.076c0-1.23-1.803-3.034-3.714-4.945-3.43-3.43-7.7-7.7-7.7-13.734C30.094 5.586 35.68 0 42.546 0S55 5.586 55 12.453c0 6.033-4.27 10.304-7.701 13.734-1.91 1.91-3.714 3.714-3.714 4.945zM42.547 2.075c-5.722 0-10.377 4.656-10.377 10.378 0 5.174 3.933 9.107 7.093 12.267 1.324 1.324 2.497 2.496 3.284 3.629.788-1.133 1.96-2.305 3.285-3.63 3.16-3.159 7.093-7.092 7.093-12.266 0-5.722-4.656-10.378-10.378-10.378zM10.377 11.415h2.076v25.943h-2.076zM10.377 41.51h2.076v8.431h-2.076zM41.51 38.396h2.075v6.227h-2.076z"></path><path d="M41.51 30.094h2.075v3.114h-2.076zM20.755 30.094h2.075v14.529h-2.075zM31.132 40.472h2.076v9.469h-2.076z"></path><path d="M32.186 50.85a5.234 5.234 0 01-2.99-.934l-6.79-4.042c-.416-.287-.897-.287-1.256-.04l-6.818 4.118c-1.72 1.202-4.111 1.203-5.89-.036L1.41 45.672C.52 45.053 0 44.077 0 43.066V7.264c0-.762.398-1.487 1.072-1.839a2.092 2.092 0 012.17.146l7.486 4.581c.414.286.895.285 1.25.036l6.904-4.106c1.714-1.197 4.104-1.198 5.884.04l6.744 4-1.06 1.785-6.807-4.04c-1.133-.785-2.57-.784-3.639-.04l-6.903 4.106c-1.004.7-2.435.7-3.502-.04L2.075 7.263v35.802c.017.34.188.674.464.866l7.031 4.244c1.125.78 2.563.782 3.632.036l6.818-4.118c1.01-.704 2.442-.705 3.509.037l6.79 4.042c1.13.783 2.568.785 3.638.04l6.842-4.12c1.008-.703 2.442-.704 3.508.038l7.58 4.771V17.253h2.075v31.52a2.03 2.03 0 01-1.092 1.806 2.093 2.093 0 01-2.171-.143l-2.338-1.442-5.183-3.123c-.41-.283-.892-.286-1.251-.037l-6.842 4.118a5.053 5.053 0 01-2.899.897z"></path></g></svg>