<?xml version="1.0" encoding="UTF-8"?>
<svg width="159px" height="22px" viewBox="0 0 159 22" version="1.1" xmlns="http://www.w3.org/2000/svg" xmlns:xlink="http://www.w3.org/1999/xlink">
    <!-- Generator: Sketch 63.1 (92452) - https://sketch.com -->
    <title>Shape</title>
    <desc>Created with Sketch.</desc>
    <g id="About" stroke="none" stroke-width="1" fill="none" fill-rule="evenodd">
        <g transform="translate(-1299.000000, -3502.000000)" fill="#B0B4B9" id="partners">
            <g transform="translate(242.000000, 3313.000000)">
                <path d="M1119.04972,208.252707 L1105.24767,208.243237 L1105.24767,202.125059 C1105.24767,201.308324 1105.94353,200.613743 1106.76896,200.613743 L1119.04972,200.613743 C1121.19009,200.613743 1122.91775,202.32297 1122.91775,204.424229 C1122.91775,206.549162 1121.19009,208.257915 1119.04972,208.257915 L1119.04972,208.252707 Z M1105.24767,191.328525 L1119.1121,191.344149 C1121.05572,191.344149 1122.6298,192.899498 1122.6298,194.819419 C1122.6298,196.728449 1121.05572,198.28143 1119.1121,198.28143 L1106.55781,198.28143 C1106.1019,198.314573 1105.65079,198.416369 1105.24767,198.587766 L1105.24767,191.328052 L1105.24767,191.328525 Z M1122.6538,199.42486 C1124.05992,198.367129 1124.98613,196.699568 1124.98613,194.808529 C1124.98613,191.612607 1122.35146,189.008522 1119.10731,189.008522 L1102.7488,189.000473 L1102.7488,210.570342 L1119.04972,210.570342 C1122.48583,210.570342 1125.26928,207.818535 1125.26928,204.419021 C1125.26928,202.359427 1124.23748,200.541302 1122.6538,199.42486 L1122.6538,199.42486 Z M1195.29213,199.804583 C1194.76423,199.804583 1194.26513,199.91064 1193.80442,200.095767 L1193.75643,191.328052 L1207.4577,191.323317 C1209.83323,191.323317 1211.75765,193.213882 1211.75765,195.562766 C1211.75765,197.909283 1209.83323,199.812159 1207.4577,199.812159 L1195.26813,199.802689 L1195.29213,199.804583 Z M1214.44511,208.252233 C1213.84523,208.729017 1212.991,208.632903 1212.4679,208.086519 L1207.68326,202.095231 C1211.25854,201.986332 1214.11398,199.10006 1214.11398,195.557558 C1214.11398,191.931726 1211.13857,189 1207.4673,189 L1191.28013,189 L1191.28013,210.571762 L1193.78043,210.571762 L1193.82842,203.544048 C1193.87641,202.760929 1194.52908,202.108488 1195.34012,202.108488 L1204.54948,202.108488 L1210.52909,209.602096 C1211.90642,211.207159 1214.32033,211.474669 1216,210.172154 L1214.46911,208.251286 L1214.44511,208.252233 Z M1150.31069,208.102143 L1150.31069,202.215965 C1150.31069,201.407752 1151.00655,200.743474 1151.81759,200.728323 L1162.68742,200.728323 L1162.68742,198.247341 L1151.7792,198.247341 C1151.27391,198.257619 1150.77535,198.36371 1150.31069,198.559831 L1150.31069,191.468672 L1168.05755,191.468672 L1168.05755,189.000473 L1147.79119,189.000473 L1147.79119,210.570342 L1168.79181,210.570342 L1168.79181,208.102617 L1150.31069,208.102617 L1150.31069,208.102143 Z M1077.81633,189.052555 L1077.81633,201.618446 C1077.81633,205.917553 1075.71435,208.45914 1069.40025,208.45914 C1063.06791,208.45914 1060.95393,205.918027 1060.95393,201.618446 L1060.95393,192.785392 C1060.87379,190.691708 1059.13365,189.009943 1057,189.009943 L1057,191.448313 C1057.77361,191.448313 1058.38884,192.041097 1058.46179,192.785392 L1058.46179,202.476374 C1058.46179,207.457277 1062.421,210.997885 1069.39977,210.997885 C1076.36798,210.997885 1080.31184,207.457277 1080.31184,202.476374 L1080.31184,189.053502 L1077.81633,189.053502 L1077.81633,189.052555 Z" id="Shape"></path>
            </g>
        </g>
    </g>
</svg>